<svg class="_hidden dice js-dice" data-dice="4" xmlns="http://www.w3.org/2000/svg" viewBox="0 0 512 512">
  <path d="M55.552 508C27.12 508 4 484.872 4 456.448V55.552C4 27.128 27.128 4 55.552 4H456.44c28.432 0 51.552 23.128 51.552 51.552V456.44c0 28.432-23.128 51.552-51.552 51.552H55.552V508z" fill="#fff"/>
  <path d="M456.448 8C482.664 8 504 29.336 504 55.552V456.44c0 26.224-21.336 47.56-47.552 47.56H55.552C29.336 504 8 482.664 8 456.448V55.552C8 29.336 29.336 8 55.552 8h400.896m0-8H55.552C24.872 0 0 24.872 0 55.552V456.44C0 487.128 24.872 512 55.552 512H456.44c30.688 0 55.56-24.872 55.56-55.552V55.552C512 24.872 487.128 0 456.448 0z" fill="#ccc"/>
  <g fill="#333">
    <circle cx="394.72" cy="109.256" r="45.256"/>
    <circle cx="394.72" cy="402.72" r="45.256"/>
    <circle cx="117.256" cy="109.256" r="45.256"/>
    <circle cx="117.256" cy="402.72" r="45.256"/>
  </g>
</svg>
